name Walk10.mot
datacolumns 19
datarows 10
range 2.30100000 2.31000000
endheader

                time	   L_ground_force_vx	   L_ground_force_vy	   L_ground_force_vz	   L_ground_force_px	   L_ground_force_py	   L_ground_force_pz	   R_ground_force_vx	   R_ground_force_vy	   R_ground_force_vz	   R_ground_force_px	   R_ground_force_py	   R_ground_force_pz	   L_ground_torque_x	   L_ground_torque_y	   L_ground_torque_z	   R_ground_torque_x	   R_ground_torque_y	   R_ground_torque_z	
          2.30100000	          0.00000021	          0.00000064	         -0.00000002	         -0.00000000	          0.00000000	         -0.00000000	         19.23231406	         99.31729671	          5.13258593	          0.34414858	          0.00000000	          0.06054128	          0.00000000	          0.00000000	          0.00000000	          0.00000000	         -4.64058470	          0.00000000	
          2.30200000	          0.00000020	          0.00000060	         -0.00000002	         -0.00000000	          0.00000000	         -0.00000000	         17.65123401	         93.28147259	          4.92124509	          0.34053585	          0.00000000	          0.05976233	          0.00000000	          0.00000000	          0.00000000	          0.00000000	         -4.31979254	          0.00000000	
          2.30300000	          0.00000019	          0.00000056	         -0.00000002	         -0.00000000	          0.00000000	         -0.00000000	         16.12247863	         87.46454249	          4.70249240	          0.33666622	          0.00000000	          0.05894480	          0.00000000	          0.00000000	          0.00000000	          0.00000000	         -4.00813233	          0.00000000	
          2.30400000	          0.00000018	          0.00000052	         -0.00000002	         -0.00000000	          0.00000000	         -0.00000000	         14.64760055	         81.86495330	          4.47786623	          0.33253430	          0.00000000	          0.05808778	          0.00000000	          0.00000000	          0.00000000	          0.00000000	         -3.70596736	          0.00000000	
          2.30500000	          0.00000016	          0.00000048	         -0.00000002	         -0.00000000	          0.00000000	         -0.00000000	         13.22797389	         76.48066881	          4.24887477	          0.32813550	          0.00000000	          0.05719045	          0.00000000	          0.00000000	          0.00000000	          0.00000000	         -3.41362657	          0.00000000	
          2.30600000	          0.00000015	          0.00000045	         -0.00000002	         -0.00000000	          0.00000000	         -0.00000000	         11.86479059	         71.30921119	          4.01698679	          0.32346603	          0.00000000	          0.05625215	          0.00000000	          0.00000000	          0.00000000	          0.00000000	         -3.13140337	          0.00000000	
          2.30700000	          0.00000014	          0.00000041	         -0.00000002	         -0.00000000	          0.00000000	         -0.00000000	         10.55905720	         66.34770206	          3.78362286	          0.31852312	          0.00000000	          0.05527236	          0.00000000	          0.00000000	          0.00000000	          0.00000000	         -2.85955467	          0.00000000	
          2.30800000	          0.00000013	          0.00000038	         -0.00000002	         -0.00000000	          0.00000000	         -0.00000000	          9.31159237	         61.59290340	          3.55014715	          0.31330501	          0.00000000	          0.05425079	          0.00000000	          0.00000000	          0.00000000	          0.00000000	         -2.59830024	          0.00000000	
          2.30900000	          0.00000012	          0.00000035	         -0.00000002	         -0.00000000	          0.00000000	         -0.00000000	          8.12302444	         57.04125876	          3.31785946	          0.30781112	          0.00000000	          0.05318737	          0.00000000	          0.00000000	          0.00000000	          0.00000000	         -2.34782206	          0.00000000	
          2.31000000	          0.00000011	          0.00000032	         -0.00000002	         -0.00000000	          0.00000000	         -0.00000000	          6.99378943	         52.68893476	          3.08798720	          0.30204212	          0.00000000	          0.05208229	          0.00000000	          0.00000000	          0.00000000	          0.00000000	         -2.10826384	          0.00000000	
